<svg width="1024" height="1024" viewBox="0 0 1024 1024" fill="none" xmlns="http://www.w3.org/2000/svg" role="img" aria-labelledby="title desc">
  <title id="title">Llmastro mobile app icon</title>
  <desc id="desc">Premium dark violet app icon with a gold celestial portal and violet orbit.</desc>
  <defs>
    <radialGradient id="bg" cx="50%" cy="42%" r="72%">
      <stop offset="0" stop-color="#2A2168"/>
      <stop offset="0.5" stop-color="#1D1747"/>
      <stop offset="1" stop-color="#14102E"/>
    </radialGradient>
    <linearGradient id="gold" x1="324" y1="171" x2="704" y2="745" gradientUnits="userSpaceOnUse">
      <stop offset="0" stop-color="#FFF0BC"/>
      <stop offset="0.48" stop-color="#E6CB8E"/>
      <stop offset="1" stop-color="#B89A52"/>
    </linearGradient>
    <linearGradient id="violet" x1="165" y1="780" x2="854" y2="234" gradientUnits="userSpaceOnUse">
      <stop offset="0" stop-color="#6D5BB8"/>
      <stop offset="0.55" stop-color="#A896E0"/>
      <stop offset="1" stop-color="#C9BDF0"/>
    </linearGradient>
    <filter id="glow" x="-35%" y="-35%" width="170%" height="170%">
      <feGaussianBlur stdDeviation="22" result="blur"/>
      <feColorMatrix in="blur" type="matrix" values="0.68 0 0 0 0.25 0 0.58 0 0 0.18 0 0 0.92 0 0.55 0 0 0 0.56 0"/>
      <feBlend in="SourceGraphic" mode="screen"/>
    </filter>
  </defs>
  <rect width="1024" height="1024" fill="url(#bg)"/>
  <circle cx="512" cy="512" r="404" fill="#A896E0" opacity="0.04"/>
  <path d="M143 755C300 635 439 543 563 480C690 416 792 375 872 351" stroke="url(#violet)" stroke-width="16" stroke-linecap="round"/>
  <path d="M214 306C322 148 538 91 706 182C874 272 955 473 893 655C831 837 645 945 458 905C270 866 142 696 158 507" stroke="#6D5BB8" stroke-width="8" stroke-linecap="round" opacity="0.36"/>
  <circle cx="872" cy="351" r="28" fill="#C9BDF0"/>
  <circle cx="872" cy="351" r="58" stroke="#A896E0" stroke-width="7" opacity="0.32"/>
  <g filter="url(#glow)">
    <circle cx="512" cy="469" r="284" stroke="url(#gold)" stroke-width="30"/>
    <path d="M311 268L713 670M713 268L311 670" stroke="url(#gold)" stroke-width="22" stroke-linecap="round"/>
    <path d="M512 185V118M512 753V820M228 469H255M769 469H796" stroke="#F3E2B4" stroke-width="13" stroke-linecap="round" opacity="0.74"/>
    <path d="M512 347L546 469L512 591L478 469L512 347Z" fill="#14102E" stroke="#F3E2B4" stroke-width="10"/>
    <circle cx="512" cy="469" r="18" fill="#F3E2B4"/>
  </g>
  <path d="M512 72L535 128L594 150L535 173L512 229L489 173L430 150L489 128L512 72Z" fill="#F3E2B4"/>
  <circle cx="236" cy="277" r="9" fill="#A896E0"/>
  <circle cx="790" cy="744" r="9" fill="#F3E2B4"/>
  <circle cx="814" cy="210" r="6" fill="#F3F0FB" opacity="0.76"/>
</svg>
